<svg width="57" height="57" viewBox="0 0 57 57" fill="none" xmlns="http://www.w3.org/2000/svg">
<g id="AI">
<rect x="0.964844" y="0.710205" width="55.8711" height="55.8711" rx="12.4158" fill="#330000"/>
<g id="Union">
<path d="M41.5192 21.5982C40.7452 21.6204 39.9947 21.331 39.4319 20.8188C38.8924 20.2621 38.611 19.5273 38.6344 18.7702C38.611 18.0131 38.9159 17.3005 39.4788 16.7884C40.0416 16.2762 40.7922 16.009 41.5661 16.009C42.4808 16.009 43.1844 16.2762 43.7004 16.7884C44.2163 17.3228 44.4978 18.0354 44.4743 18.7702C44.4978 19.5273 44.2163 20.2621 43.6535 20.8188C43.114 21.3532 42.3166 21.6427 41.5192 21.5982Z" fill="#FF9A00"/>
<path d="M38.8924 40.9263V23.7804C38.8924 23.5577 38.9863 23.4686 39.1973 23.4686H43.8411C44.0522 23.4686 44.146 23.58 44.146 23.7804V40.9263C44.146 41.1713 44.0522 41.2826 43.8411 41.2826H39.2442C39.0097 41.2826 38.8924 41.149 38.8924 40.9263Z" fill="#FF9A00"/>
<path fill-rule="evenodd" clip-rule="evenodd" d="M28.9718 35.7157H20.2471L18.4647 40.9486C18.4178 41.149 18.2302 41.2826 18.0191 41.2603H13.6099C13.3519 41.2603 13.2815 41.1267 13.3519 40.8595L20.9038 20.2176C20.9243 20.1527 20.9448 20.0859 20.9659 20.0172C21.0172 19.8503 21.0719 19.6721 21.1384 19.4828C21.2322 19.0151 21.2791 18.5253 21.2791 18.0354C21.2556 17.924 21.3495 17.8127 21.4667 17.7904H27.5411C27.7288 17.7904 27.8226 17.8572 27.846 17.9686L36.4065 40.9041C36.4769 41.149 36.4065 41.2603 36.172 41.2603H31.2702C31.106 41.2826 30.9419 41.1713 30.895 41.0154L28.9718 35.7157ZM21.6074 31.1954H27.5646C27.4239 30.7278 27.2362 30.1711 27.0252 29.5922C26.8141 28.991 26.603 28.3452 26.3919 27.6772C26.2747 27.332 26.1633 26.9925 26.0519 26.6529C25.9405 26.3133 25.829 25.9737 25.7118 25.6286C25.4772 24.9383 25.2662 24.2925 25.0785 23.6468C24.9955 23.3708 24.917 23.1036 24.8412 22.8451C24.7456 22.5196 24.6541 22.2078 24.5626 21.9099H24.5157C24.3046 22.8674 24.0466 23.8249 23.7182 24.7824C23.5843 25.1894 23.4503 25.6029 23.3151 26.0203C23.0951 26.6991 22.8717 27.3887 22.6394 28.078C22.311 29.2136 21.9592 30.2602 21.6074 31.1954Z" fill="#FF9A00"/>
</g>
</g>
</svg>
