<svg width="54" height="54" viewBox="0 0 54 54" fill="none" xmlns="http://www.w3.org/2000/svg">
<path id="Codepen" fill-rule="evenodd" clip-rule="evenodd" d="M53.474 18.4324C53.4774 18.4496 53.481 18.467 53.4836 18.4853C53.497 18.5823 53.5037 18.6826 53.5037 18.7846V35.0865C53.5037 35.1868 53.497 35.2871 53.4836 35.3875C53.4812 35.4025 53.4781 35.4179 53.4749 35.4335L53.4698 35.4595L53.4652 35.4861C53.4535 35.5513 53.4418 35.6148 53.4251 35.6784C53.4228 35.6873 53.4202 35.696 53.4174 35.7048C53.4128 35.7196 53.4076 35.7343 53.4025 35.7488L53.3949 35.7704L53.3804 35.8141C53.3646 35.8617 53.3484 35.9106 53.3298 35.9593C53.3147 35.9961 53.2963 36.0328 53.2779 36.0696C53.2545 36.1215 53.2295 36.1716 53.1994 36.2234C53.186 36.2468 53.1712 36.2701 53.1564 36.2934L53.1341 36.3288C53.1041 36.3773 53.0723 36.4224 53.0372 36.4676C53.0121 36.5027 52.9853 36.5361 52.9586 36.5679C52.9218 36.6097 52.8834 36.6531 52.8432 36.6916L52.8416 36.6933C52.8121 36.7244 52.7841 36.754 52.7529 36.7819C52.7095 36.8203 52.666 36.8571 52.6225 36.8922L52.5909 36.9166C52.5669 36.9351 52.5433 36.9534 52.5189 36.9708C52.5122 36.975 52.5059 36.98 52.4996 36.985C52.4934 36.9901 52.4871 36.9951 52.4804 36.9993L28.0276 53.3011C27.6413 53.5586 27.1966 53.6874 26.7518 53.6874C26.3071 53.6874 25.8623 53.5586 25.4761 53.3011L1.02493 36.9993C1.01824 36.9951 1.01197 36.9901 1.0057 36.985C0.999432 36.98 0.993162 36.975 0.986474 36.9708C0.94969 36.9457 0.91625 36.919 0.88281 36.8922C0.837667 36.8571 0.794195 36.8203 0.752395 36.7819C0.720627 36.7535 0.690532 36.7234 0.660436 36.6916C0.620308 36.6531 0.581852 36.6097 0.54674 36.5679C0.518317 36.5361 0.491565 36.5027 0.466485 36.4676C0.433045 36.4224 0.401277 36.3773 0.371182 36.3288C0.347774 36.2937 0.326038 36.2586 0.304302 36.2234C0.275878 36.1716 0.250798 36.1215 0.225718 36.0696L0.208633 36.0328C0.197113 36.0083 0.185592 35.9838 0.175559 35.9593C0.154479 35.9081 0.137466 35.8569 0.120858 35.8069L0.115367 35.7904L0.104516 35.7572C0.0959375 35.7314 0.0872773 35.7053 0.0802555 35.6784C0.0635356 35.6148 0.0518318 35.5513 0.0401277 35.4861L0.0346044 35.4596C0.0293754 35.4351 0.0241971 35.4108 0.0217358 35.3875C0.00835986 35.2871 0 35.1868 0 35.0865V18.7846C0 18.6826 0.00835986 18.5823 0.0217358 18.4853C0.0242049 18.4594 0.0294085 18.4353 0.0346545 18.411L0.0401277 18.385C0.0518306 18.3198 0.0635372 18.2546 0.0802555 18.1927C0.0872754 18.1658 0.0959328 18.1397 0.104509 18.1139L0.115367 18.0807C0.133759 18.0238 0.152151 17.9687 0.175559 17.9135C0.190244 17.876 0.208113 17.8384 0.224505 17.804L0.225718 17.8015C0.250798 17.748 0.275878 17.6978 0.304302 17.6493C0.326038 17.6125 0.347774 17.5774 0.371182 17.5423C0.401277 17.4938 0.433045 17.447 0.466485 17.4019C0.491565 17.3684 0.518317 17.335 0.54674 17.3032C0.581852 17.2597 0.620308 17.2179 0.660436 17.1778L0.678475 17.1596C0.70261 17.1352 0.726976 17.1106 0.752395 17.0892C0.794195 17.0507 0.837667 17.014 0.88281 16.9788C0.91625 16.9521 0.94969 16.9253 0.986474 16.9003C0.993162 16.8961 0.999432 16.8911 1.0057 16.8861C1.01196 16.881 1.01826 16.876 1.02493 16.8718L25.4761 0.569945C26.2502 0.0549727 27.2551 0.0549727 28.0276 0.569945L52.4804 16.8718C52.4871 16.876 52.4934 16.881 52.4996 16.8861L52.505 16.8903C52.5095 16.8939 52.5141 16.8973 52.5189 16.9003L52.5432 16.918L52.563 16.933L52.6225 16.9788C52.666 17.014 52.7095 17.0507 52.7529 17.0892C52.7756 17.1083 52.7966 17.1299 52.8177 17.1517L52.8432 17.1778C52.8834 17.2179 52.9218 17.2597 52.9586 17.3032C52.9853 17.335 53.0121 17.3684 53.0372 17.4019C53.0723 17.447 53.1041 17.4938 53.1341 17.5423L53.1524 17.5714C53.1685 17.5969 53.1848 17.6227 53.1994 17.6493C53.2295 17.6978 53.2545 17.748 53.2779 17.8015C53.2963 17.8366 53.3147 17.875 53.3298 17.9135C53.3515 17.9687 53.3699 18.0238 53.3883 18.0807C53.3927 18.0944 53.3975 18.1082 53.4024 18.122C53.4105 18.1452 53.4188 18.1687 53.4251 18.1927C53.4418 18.2546 53.4535 18.3198 53.4652 18.385L53.469 18.407L53.474 18.4324ZM47.0648 18.7879L29.0508 6.77971V17.5022L39.0192 24.1701L47.0648 18.7879ZM24.4528 6.77971V17.5022L14.4861 24.1701L6.43883 18.7879L24.4528 6.77971ZM10.3513 26.9355L4.59797 23.0883V30.7828L10.3513 26.9355ZM24.4528 47.0914L6.43883 35.0831L14.4861 29.7027L24.4528 36.3689V47.0914ZM18.6209 26.9355L26.7518 32.3745L34.8844 26.9355L26.7518 21.4966L18.6209 26.9355ZM29.0508 47.0914V36.3689L39.0192 29.7027L47.0648 35.0831L29.0508 47.0914ZM43.154 26.9355L48.9057 30.7828V23.0883L43.154 26.9355Z" fill="white"/>
</svg>
