<svg width="37" height="57" viewBox="0 0 37 57" fill="none" xmlns="http://www.w3.org/2000/svg">
<g id="figma_logo" clip-path="url(#clip0_233_631)">
<path id="Vector" d="M18.4658 28.6459C18.4658 26.1972 19.4386 23.8487 21.1701 22.1172C22.9016 20.3857 25.25 19.413 27.6987 19.413C30.1475 19.413 32.4959 20.3857 34.2274 22.1172C35.9589 23.8487 36.9317 26.1972 36.9317 28.6459C36.9317 31.0946 35.9589 33.4431 34.2274 35.1746C32.4959 36.9061 30.1475 37.8788 27.6987 37.8788C25.25 37.8788 22.9016 36.9061 21.1701 35.1746C19.4386 33.4431 18.4658 31.0946 18.4658 28.6459V28.6459Z" fill="#1ABCFE"/>
<path id="Vector_2" d="M0 47.1117C0 44.663 0.972752 42.3146 2.70426 40.583C4.43577 38.8515 6.78421 37.8788 9.23293 37.8788H18.4659V47.1117C18.4659 49.5604 17.4931 51.9089 15.7616 53.6404C14.0301 55.3719 11.6817 56.3446 9.23293 56.3446C6.78421 56.3446 4.43577 55.3719 2.70426 53.6404C0.972752 51.9089 0 49.5604 0 47.1117H0Z" fill="#0ACF83"/>
<path id="Vector_3" d="M18.4658 0.947021V19.4129H27.6987C30.1475 19.4129 32.4959 18.4401 34.2274 16.7086C35.9589 14.9771 36.9317 12.6287 36.9317 10.18C36.9317 7.73123 35.9589 5.38279 34.2274 3.65128C32.4959 1.91977 30.1475 0.947021 27.6987 0.947021L18.4658 0.947021Z" fill="#FF7262"/>
<path id="Vector_4" d="M0 10.18C0 12.6287 0.972752 14.9771 2.70426 16.7086C4.43577 18.4401 6.78421 19.4129 9.23293 19.4129H18.4659V0.947021H9.23293C6.78421 0.947021 4.43577 1.91977 2.70426 3.65128C0.972752 5.38279 0 7.73123 0 10.18H0Z" fill="#F24E1E"/>
<path id="Vector_5" d="M0 28.6459C0 31.0946 0.972752 33.4431 2.70426 35.1746C4.43577 36.9061 6.78421 37.8788 9.23293 37.8788H18.4659V19.413H9.23293C6.78421 19.413 4.43577 20.3857 2.70426 22.1172C0.972752 23.8487 0 26.1972 0 28.6459H0Z" fill="#A259FF"/>
</g>
<defs>
<clipPath id="clip0_233_631">
<rect width="36.9317" height="55.3976" fill="white" transform="translate(0 0.947021)"/>
</clipPath>
</defs>
</svg>
