<svg width="59" height="58" viewBox="0 0 59 58" fill="none" xmlns="http://www.w3.org/2000/svg">
<g id="Github">
<path id="Vector" d="M29.4487 0C13.6301 0 0.802734 13.1495 0.802734 29.371C0.802734 42.3479 9.01068 53.3574 20.3926 57.241C21.8243 57.5129 22.3498 56.6039 22.3498 55.8281C22.3498 55.1278 22.3233 52.8141 22.311 50.3599C14.3416 52.1366 12.66 46.8945 12.66 46.8945C11.3569 43.4996 9.47936 42.5969 9.47936 42.5969C6.88031 40.774 9.67527 40.8114 9.67527 40.8114C12.5518 41.0186 14.0665 43.8381 14.0665 43.8381C16.6214 48.3283 20.7678 47.0302 22.4025 46.2797C22.6596 44.3814 23.402 43.0857 24.2212 42.3522C17.8586 41.6096 11.17 39.0911 11.17 27.837C11.17 24.6303 12.289 22.0102 14.1215 19.9534C13.8241 19.2136 12.8436 16.2263 14.399 12.1807C14.399 12.1807 16.8045 11.3913 22.2787 15.1913C24.5637 14.5406 27.0143 14.2142 29.4487 14.203C31.8832 14.2142 34.3356 14.5406 36.6249 15.1913C42.0925 11.3913 44.4947 12.1807 44.4947 12.1807C46.0539 16.2263 45.0729 19.2136 44.7755 19.9534C46.6122 22.0102 47.7237 24.6303 47.7237 27.837C47.7237 39.1179 41.0223 41.6018 34.6435 42.3289C35.671 43.2404 36.5865 45.0278 36.5865 47.768C36.5865 51.6979 36.5533 54.8607 36.5533 55.8281C36.5533 56.6097 37.0689 57.5256 38.521 57.2371C49.8967 53.3491 58.0943 42.3435 58.0943 29.371C58.0943 13.1495 45.2688 0 29.4487 0" fill="white"/>
<g id="Vector_2">
<path d="M11.7374 41.9688C11.6745 42.1133 11.451 42.1566 11.2474 42.0574C11.04 41.9626 10.9235 41.7656 10.9907 41.6207C11.0523 41.4718 11.2763 41.4304 11.4832 41.5301C11.691 41.625 11.8094 41.8239 11.7374 41.9688Z" fill="white"/>
<path d="M12.8956 43.2826C12.7592 43.4111 12.4926 43.3514 12.3118 43.1482C12.1247 42.9455 12.0897 42.6743 12.228 42.5438C12.3686 42.4153 12.6271 42.4754 12.8146 42.6782C13.0016 42.8833 13.0381 43.1525 12.8956 43.2826Z" fill="white"/>
<path d="M14.0229 44.9575C13.8477 45.0813 13.5613 44.9652 13.3842 44.7066C13.209 44.448 13.209 44.1378 13.388 44.0136C13.5656 43.8894 13.8477 44.0011 14.0272 44.2578C14.2019 44.5207 14.2019 44.8308 14.0229 44.9575Z" fill="white"/>
<path d="M15.5674 46.5756C15.4107 46.7514 15.0769 46.7042 14.8326 46.4643C14.5826 46.2298 14.513 45.897 14.6702 45.7213C14.8288 45.545 15.1645 45.5946 15.4107 45.8325C15.6588 46.0666 15.7346 46.4017 15.5674 46.5756Z" fill="white"/>
<path d="M17.6981 47.5151C17.629 47.7429 17.3075 47.8465 16.9836 47.7497C16.6602 47.65 16.4486 47.3832 16.5139 47.153C16.5812 46.9238 16.9041 46.8159 17.2303 46.9194C17.5532 47.0186 17.7654 47.2835 17.6981 47.5151Z" fill="white"/>
<path d="M20.0381 47.6895C20.0461 47.9293 19.7715 48.1282 19.4315 48.1325C19.0897 48.1402 18.8132 47.9461 18.8094 47.7102C18.8094 47.4679 19.0778 47.271 19.4197 47.2652C19.7597 47.2585 20.0381 47.4511 20.0381 47.6895Z" fill="white"/>
<path d="M22.2156 47.3124C22.2563 47.5464 22.0201 47.7867 21.6825 47.8508C21.3506 47.9124 21.0433 47.768 21.0011 47.5358C20.9599 47.296 21.2005 47.0557 21.5319 46.9936C21.87 46.9339 22.1725 47.0745 22.2156 47.3124Z" fill="white"/>
</g>
</g>
</svg>
