<svg width="54" height="54" viewBox="0 0 54 54" fill="none" xmlns="http://www.w3.org/2000/svg">
<g id="google">
<path id="Vector" d="M13.8318 12.4658C21.1499 12.4658 27.0893 18.4052 27.0893 25.7234V26.9355H1.78634C1.11967 26.9355 0.574219 26.39 0.574219 25.7234C0.574219 18.4052 6.5136 12.4658 13.8318 12.4658Z" fill="#FBBB05"/>
<path id="Vector_2" d="M41.5585 13.678C41.5585 20.9961 35.6191 26.9355 28.301 26.9355H27.0889V1.63253C27.0889 0.965863 27.6343 0.42041 28.301 0.42041C35.6191 0.42041 41.5585 6.35979 41.5585 13.678Z" fill="#E94335"/>
<path id="Vector_3" d="M40.3464 41.4052C33.0282 41.4052 27.0889 35.4658 27.0889 28.1477V26.9355H52.3918C53.0585 26.9355 53.604 27.481 53.604 28.1477C53.604 35.4658 47.6646 41.4052 40.3464 41.4052Z" fill="#4285F4"/>
<path id="Vector_4" d="M12.6191 40.1931C12.6191 32.8749 18.5585 26.9355 25.8767 26.9355H27.0888V52.2385C27.0888 52.9052 26.5433 53.4506 25.8767 53.4506C18.5585 53.4506 12.6191 47.5113 12.6191 40.1931Z" fill="#0F9D58"/>
</g>
</svg>
