<svg width="56" height="57" viewBox="0 0 56 57" fill="none" xmlns="http://www.w3.org/2000/svg">
<g id="Group">
<rect x="0.09375" y="0.710205" width="55.8711" height="55.8711" rx="12.4158" fill="#470137"/>
<g id="Xd">
<path fill-rule="evenodd" clip-rule="evenodd" d="M40.0782 41.9981C38.3755 42.0212 36.6728 41.675 35.1313 40.9596C33.6817 40.2903 32.4852 39.1825 31.6569 37.8209C30.8056 36.413 30.3914 34.659 30.3914 32.5589C30.3684 30.851 30.8056 29.1663 31.6569 27.6892C32.5312 26.1891 33.7967 24.9428 35.3153 24.112C36.9259 23.2119 38.8587 22.7734 41.1366 22.7734C41.2516 22.7734 41.4127 22.7734 41.6198 22.7965C41.731 22.8089 41.8489 22.8146 41.9771 22.8208C42.0874 22.8262 42.2053 22.832 42.333 22.8426V15.5497C42.333 15.3881 42.4021 15.2958 42.5631 15.2958H47.2339C47.349 15.2727 47.441 15.3651 47.464 15.4574V37.4747C47.464 37.8519 47.483 38.2672 47.5037 38.7206L47.51 38.8594C47.549 39.2693 47.5714 39.6628 47.5914 40.0117L47.6021 40.198C47.6021 40.3595 47.5331 40.498 47.372 40.5673C46.1755 41.075 44.91 41.4442 43.6215 41.675C42.4481 41.8827 41.2746 41.9981 40.0782 41.9981ZM42.333 37.3824V27.2276C42.126 27.1815 41.9189 27.1353 41.7118 27.1122C41.4587 27.0892 41.2056 27.0661 40.9525 27.0661C40.0552 27.0661 39.1578 27.2507 38.3525 27.6661C37.5702 28.0585 36.9029 28.6354 36.3967 29.374C35.8905 30.1125 35.6374 31.1049 35.6374 32.305C35.6144 33.1128 35.7525 33.9205 36.0286 34.6821C36.2587 35.3053 36.6038 35.8591 37.064 36.3207C37.5012 36.7361 38.0304 37.0593 38.6286 37.2439C39.2498 37.4516 39.8941 37.5439 40.5383 37.5439C40.8835 37.5439 41.2056 37.5208 41.5047 37.4978C41.8038 37.5208 42.0569 37.4747 42.333 37.3824Z" fill="#FF61F6"/>
<path d="M22.5456 29.074L29.4482 17.6499C29.4943 17.6037 29.5403 17.5114 29.5173 17.4883C29.4943 17.3729 29.3792 17.3037 29.2642 17.3268H24.4093C24.2942 17.3037 24.2022 17.3268 24.1102 17.3729C24.0411 17.4191 23.9951 17.5114 23.9721 17.6037C23.7655 17.9899 23.559 18.3837 23.3508 18.7806C23.0489 19.3561 22.7438 19.9379 22.4305 20.5117C21.9013 21.481 21.3721 22.4503 20.8659 23.4196C20.3597 24.3889 19.8535 25.3813 19.3703 26.3968H19.3243C18.8411 25.4044 18.3349 24.4351 17.7827 23.4658C17.3119 22.6725 16.872 21.8792 16.425 21.0732C16.3259 20.8944 16.2263 20.7149 16.1261 20.5347C15.5969 19.5424 15.0907 18.55 14.6535 17.5576C14.5845 17.4653 14.5155 17.396 14.4234 17.3499C14.3314 17.3268 14.2163 17.3037 14.1013 17.3037H8.87827C8.78623 17.3037 8.69419 17.3268 8.64818 17.396C8.60216 17.4422 8.62517 17.5345 8.69419 17.6268L15.6659 29.4663L8.51012 41.2365C8.4641 41.3058 8.4411 41.3981 8.4641 41.4904C8.4641 41.5777 8.50359 41.5726 8.56265 41.5649C8.58168 41.5624 8.60274 41.5597 8.62517 41.5597H13.6871C13.9402 41.5597 14.1243 41.5366 14.2163 41.3058C14.5691 40.675 14.9219 40.0237 15.2747 39.3723C15.4511 39.0467 15.6275 38.721 15.804 38.3978C16.3101 37.4285 16.8394 36.4361 17.3686 35.4437C17.8978 34.4514 18.427 33.4589 18.9102 32.4666H18.9562C19.5084 33.482 20.0606 34.4744 20.6128 35.4668C21.165 36.4592 21.6942 37.4285 22.1774 38.3748C22.419 38.8594 22.6664 39.3383 22.9137 39.8172C23.1611 40.2961 23.4084 40.775 23.65 41.2596C23.8111 41.4904 24.0642 41.5135 24.4323 41.5135H29.7013C29.7547 41.5046 29.8011 41.5094 29.8394 41.5134C29.9002 41.5198 29.9403 41.524 29.9544 41.4673C29.9774 41.375 29.9544 41.2827 29.9084 41.1904L22.5456 29.074Z" fill="#FF61F6"/>
</g>
</g>
</svg>
