<svg width="57" height="57" viewBox="0 0 57 57" fill="none" xmlns="http://www.w3.org/2000/svg">
<g id="ID">
<path id="bg" d="M0.835938 20.9302C0.835938 13.8525 0.835938 10.3137 2.21334 7.6104C3.42494 5.2325 5.35824 3.29921 7.73613 2.08761C10.4394 0.710205 13.9783 0.710205 21.0559 0.710205H36.487C43.5647 0.710205 47.1035 0.710205 49.8068 2.08761C52.1847 3.29921 54.118 5.2325 55.3296 7.6104C56.707 10.3137 56.707 13.8525 56.707 20.9302V36.3613C56.707 43.4389 56.707 46.9778 55.3296 49.6811C54.118 52.059 52.1847 53.9923 49.8068 55.2039C47.1035 56.5813 43.5647 56.5813 36.487 56.5813H21.0559C13.9783 56.5813 10.4394 56.5813 7.73613 55.2039C5.35824 53.9923 3.42494 52.059 2.21334 49.6811C0.835938 46.9778 0.835938 43.4389 0.835938 36.3613V20.9302Z" fill="#49021F"/>
<g id="Vector">
<path d="M19.9759 17.0635V41.5505C19.9759 41.807 19.8635 41.9351 19.6387 41.9349H15.1035C14.9033 41.9349 14.8034 41.8068 14.8037 41.5505V17.0635C14.8037 16.8586 14.9161 16.7561 15.141 16.7559H19.6761C19.8481 16.7309 20.0004 16.887 19.9759 17.0635Z" fill="#FF3366"/>
<path d="M33.3939 42.3192C31.6688 42.3461 29.9595 41.9784 28.3903 41.2429C25.0588 39.6615 23.6112 36.1615 23.6116 32.5552C23.5828 28.9577 25.4881 25.53 28.5965 23.829C30.7421 22.61 33.266 22.3003 35.6802 22.522V14.9491C35.6802 14.7701 35.7552 14.68 35.9051 14.68H40.6275C40.7566 14.6611 40.8709 14.7782 40.8525 14.9106V37.6294C40.8525 38.5667 40.9454 39.5008 41.0024 40.4356C41.0116 40.5953 40.9192 40.7532 40.7775 40.82C39.5592 41.3411 38.2902 41.7277 36.992 41.9732C35.8051 42.1979 34.6009 42.3137 33.3939 42.3192ZM35.6802 37.5525V27.0581C32.2724 26.1112 28.9333 28.713 28.9337 32.3245C28.8514 36.1067 32.2237 38.5893 35.6802 37.5525Z" fill="#FF3366"/>
</g>
</g>
</svg>
