<svg width="57" height="57" viewBox="0 0 57 57" fill="none" xmlns="http://www.w3.org/2000/svg">
<g id="LR">
<path id="bg" d="M0.707031 20.9302C0.707031 13.8525 0.707031 10.3137 2.08444 7.6104C3.29604 5.2325 5.22933 3.29921 7.60723 2.08761C10.3105 0.710205 13.8494 0.710205 20.927 0.710205H36.3581C43.4358 0.710205 46.9746 0.710205 49.6779 2.08761C52.0558 3.29921 53.9891 5.2325 55.2007 7.6104C56.5781 10.3137 56.5781 13.8525 56.5781 20.9302V36.3613C56.5781 43.4389 56.5781 46.9778 55.2007 49.6811C53.9891 52.059 52.0558 53.9923 49.6779 55.2039C46.9746 56.5813 43.4358 56.5813 36.3581 56.5813H20.927C13.8494 56.5813 10.3105 56.5813 7.60723 55.2039C5.22933 53.9923 3.29604 52.059 2.08444 49.6811C0.707031 46.9778 0.707031 43.4389 0.707031 36.3613V20.9302Z" fill="#001E36"/>
<g id="Vector">
<path d="M30.0492 41.8555H15.282C15.032 41.8555 14.9071 41.7146 14.9072 41.4327V17.0225C14.8796 16.8239 15.051 16.6481 15.2446 16.6765H19.8172C19.9678 16.6547 20.1005 16.7936 20.0796 16.9456V37.0119H30.8364C31.0612 37.0119 31.1487 37.1273 31.0987 37.3579L30.4241 41.5096C30.4182 41.7186 30.2467 41.8534 30.0492 41.8555Z" fill="#31A8FF"/>
<path d="M33.8009 22.7233H37.8863C38.1116 22.7254 38.3138 22.8849 38.3735 23.1078C38.6729 23.7896 38.7097 24.6118 38.7108 25.3479C39.4114 24.5112 40.2563 23.8141 41.2032 23.2913C42.2188 22.7019 43.3701 22.4032 44.5368 22.4264C44.7304 22.398 44.9018 22.5738 44.8742 22.7724V27.4238C44.8742 27.6034 44.7488 27.6928 44.4994 27.6928C42.7702 27.5705 40.078 27.9895 38.8215 29.3843V41.4786C38.8215 41.7092 38.7215 41.8246 38.5216 41.8246H34.1382C33.9229 41.8562 33.733 41.6575 33.7633 41.4401V28.3079C33.7633 26.5482 33.8005 24.7356 33.5385 22.9925C33.4982 22.8321 33.6479 22.6829 33.8009 22.7233Z" fill="#31A8FF"/>
</g>
</g>
</svg>
