<svg width="76" height="48" viewBox="0 0 76 48" fill="none" xmlns="http://www.w3.org/2000/svg">
<g id="onedrive">
<mask id="mask0_233_666" style="mask-type:alpha" maskUnits="userSpaceOnUse" x="0" y="0" width="76" height="48">
<path id="Union" d="M18.5557 47.5259C8.35452 47.5259 0.0849609 39.4286 0.0849609 29.44C0.0849609 19.6708 7.99533 11.7107 17.8865 11.3658C21.9658 4.76053 29.3709 0.345215 37.8295 0.345215C48.7538 0.345215 57.9211 7.70971 60.4358 17.6452C68.8075 17.7083 75.574 24.3733 75.574 32.5853C75.574 40.573 68.4969 47.5259 61.1187 47.5055L18.5557 47.5259Z" fill="#C4C4C4"/>
</mask>
<g mask="url(#mask0_233_666)">
<path id="vector" d="M18.5558 47.5258C12.7716 47.5258 7.60845 44.9225 4.22168 40.8473L42.648 24.7219L72.5274 41.5446C69.894 44.9805 65.9169 47.5258 61.42 47.5055C54.6378 47.5258 28.5409 47.5258 18.5558 47.5258Z" fill="url(#paint0_linear_233_666)"/>
<path id="vector_2" d="M60.426 17.6011L42.6494 24.7218L72.5289 41.5446C74.442 39.0485 75.5755 35.9466 75.5755 32.5855C75.5755 24.3734 68.809 17.7085 60.4373 17.6453C60.4336 17.6306 60.4298 17.6158 60.426 17.6011Z" fill="url(#paint1_linear_233_666)"/>
<path id="vector_3" d="M16.752 11.4394L42.6491 24.7219L60.4257 17.6011C57.8951 7.68796 48.7387 0.345215 37.8306 0.345215C29.372 0.345215 21.9669 4.76053 17.8876 11.3658C17.506 11.3791 17.1273 11.4037 16.752 11.4394Z" fill="url(#paint2_linear_233_666)"/>
<path id="vector_4" d="M4.22153 40.8471L42.6479 24.7218L16.7508 11.4392C7.39671 12.3275 0.0849609 20.0475 0.0849609 29.4398C0.0849609 33.7648 1.63531 37.7351 4.22153 40.8471Z" fill="url(#paint3_linear_233_666)"/>
</g>
</g>
<defs>
<linearGradient id="paint0_linear_233_666" x1="10.525" y1="44.3805" x2="64.3228" y2="41.1004" gradientUnits="userSpaceOnUse">
<stop stop-color="#2086B8"/>
<stop offset="1" stop-color="#46D3F6"/>
</linearGradient>
<linearGradient id="paint1_linear_233_666" x1="56.3017" y1="32.5852" x2="71.3537" y2="22.0674" gradientUnits="userSpaceOnUse">
<stop stop-color="#1694DB"/>
<stop offset="1" stop-color="#62C3FE"/>
</linearGradient>
<linearGradient id="paint2_linear_233_666" x1="20.1629" y1="3.49059" x2="55.1312" y2="23.7817" gradientUnits="userSpaceOnUse">
<stop stop-color="#0D3D78"/>
<stop offset="1" stop-color="#063B83"/>
</linearGradient>
<linearGradient id="paint3_linear_233_666" x1="-0.718122" y1="33.3716" x2="34.4406" y2="20.3146" gradientUnits="userSpaceOnUse">
<stop stop-color="#16589B"/>
<stop offset="1" stop-color="#1464B7"/>
</linearGradient>
</defs>
</svg>
