<svg width="63" height="56" viewBox="0 0 63 56" fill="none" xmlns="http://www.w3.org/2000/svg">
<g id="PPT">
<circle id="Ellipse" cx="34.2969" cy="27.9355" r="27.9355" fill="url(#paint0_linear_233_646)"/>
<g id="Mask Group">
<mask id="mask0_233_646" style="mask-type:alpha" maskUnits="userSpaceOnUse" x="6" y="0" width="57" height="56">
<circle id="Ellipse_2" cx="34.2959" cy="27.9355" r="27.9355" fill="#C4C4C4"/>
</mask>
<g mask="url(#mask0_233_646)">
<rect id="Rectangle 7" x="36.29" y="-3.99084" width="33.9217" height="33.9217" fill="url(#paint1_linear_233_646)"/>
<path id="Rectangle 2" d="M12.3467 19.7669C12.3467 16.5641 14.943 13.9678 18.1458 13.9678H34.4831C37.6859 13.9678 40.2822 16.5641 40.2822 19.7669V44.0858C40.2822 47.2885 37.6859 49.8849 34.4831 49.8849H12.3467V19.7669Z" fill="black" fill-opacity="0.3"/>
<rect id="Rectangle 7_2" x="2.37012" y="-3.99084" width="33.9217" height="33.9217" fill="#EB6C4D"/>
</g>
</g>
<rect id="rectangle" x="0.375" y="9.97705" width="35.9171" height="35.9171" rx="3.86608" fill="url(#paint2_linear_233_646)"/>
<path id="P" d="M26.3135 24.8569C26.3135 20.5525 23.4798 17.9585 18.9861 17.9585H12.3457V37.9124H16.4673V31.8407H18.8144C23.0219 31.8407 26.3135 29.4463 26.3135 24.8569ZM22.1346 24.9424C22.1346 26.8808 20.9038 28.135 18.9003 28.135H16.4673V21.6927H18.8716C20.8752 21.6927 22.1346 22.7474 22.1346 24.9424Z" fill="white"/>
</g>
<defs>
<linearGradient id="paint0_linear_233_646" x1="6.36133" y1="31.7887" x2="62.2324" y2="31.7887" gradientUnits="userSpaceOnUse">
<stop stop-color="#A73A24"/>
<stop offset="1" stop-color="#F75936"/>
</linearGradient>
<linearGradient id="paint1_linear_233_646" x1="63.2279" y1="15.9631" x2="36.29" y2="15.9631" gradientUnits="userSpaceOnUse">
<stop stop-color="#FDB8A3"/>
<stop offset="1" stop-color="#F1876D"/>
</linearGradient>
<linearGradient id="paint2_linear_233_646" x1="0.375" y1="30.4127" x2="36.2921" y2="30.4127" gradientUnits="userSpaceOnUse">
<stop stop-color="#A73A24"/>
<stop offset="1" stop-color="#F75936"/>
</linearGradient>
</defs>
</svg>
