<svg width="57" height="57" viewBox="0 0 57 57" fill="none" xmlns="http://www.w3.org/2000/svg">
<g id="PS">
<rect x="0.578125" y="0.710205" width="55.8711" height="55.8711" rx="12.4158" fill="#001E36"/>
<g id="Ps">
<path fill-rule="evenodd" clip-rule="evenodd" d="M11.7031 40.5333V16.3589C11.7031 16.1944 11.773 16.1004 11.9359 16.1004C12.3317 16.1004 12.7041 16.1004 13.2396 16.0769C13.5273 16.0648 13.8212 16.059 14.1245 16.0529C14.4101 16.0472 14.704 16.0413 15.0088 16.03C15.3339 16.0178 15.6715 16.0119 16.0215 16.0059C16.3482 16.0002 16.6857 15.9943 17.0342 15.983C17.7558 15.9595 18.4542 15.9595 19.1526 15.9595C21.0615 15.9595 22.6445 16.1944 23.9482 16.6878C25.1122 17.0871 26.183 17.745 27.0677 18.6142C27.8126 19.366 28.3946 20.2822 28.7671 21.2924C29.1163 22.2791 29.3025 23.2893 29.3025 24.3465C29.3025 26.367 28.8369 28.035 27.9057 29.3506C26.9746 30.6662 25.6709 31.6529 24.1577 32.2168C22.5747 32.8041 20.8287 33.0155 18.9198 33.0155C18.3611 33.0155 17.9886 33.0155 17.7558 32.992C17.523 32.9685 17.1971 32.9685 16.7549 32.9685L16.7548 40.5099C16.7781 40.6743 16.6617 40.8153 16.4987 40.8388H11.9825C11.7962 40.8388 11.7031 40.7448 11.7031 40.5333ZM16.7781 20.6346V28.5283L16.8479 28.5334C17.1473 28.5551 17.4267 28.5753 17.686 28.5753H18.9198C19.8277 28.5753 20.7356 28.4344 21.597 28.1524C22.3419 27.941 22.9937 27.4946 23.5059 26.9073C23.9948 26.32 24.2276 25.5212 24.2276 24.4875C24.2508 23.7592 24.0646 23.0309 23.6921 22.3966C23.2964 21.7858 22.7377 21.3159 22.0626 21.0575C21.2012 20.7051 20.27 20.5641 19.3156 20.5876C18.7103 20.5876 18.1749 20.5876 17.7325 20.6111C17.267 20.5876 16.941 20.6111 16.7781 20.6346Z" fill="#31A8FF"/>
<path d="M41.594 26.2965C42.3855 26.4609 43.1305 26.7193 43.8288 27.0952C43.922 27.1422 44.0384 27.1422 44.2479 27.0952C44.3177 27.0482 44.3643 26.9543 44.3643 26.8603V23.0309C44.3643 22.9369 44.341 22.843 44.3177 22.749C44.2712 22.655 44.178 22.561 44.0849 22.5376C43.4564 22.2791 42.7813 22.0912 42.0829 21.9972C41.1284 21.8563 40.1507 21.7858 39.1962 21.7858C37.5433 21.7858 36.1698 22.0442 35.0757 22.608C34.0747 23.0779 33.2133 23.8297 32.6313 24.7694C32.1192 25.6387 31.8398 26.6019 31.8398 27.6121C31.8166 28.4343 32.0028 29.2566 32.3753 30.0084C32.8176 30.8072 33.4229 31.4885 34.1445 32.0053C35.1688 32.7101 36.263 33.2739 37.4502 33.6968C38.5909 34.1432 39.3592 34.4956 39.7316 34.801C40.1041 35.1064 40.2903 35.4118 40.2903 35.7407C40.2903 36.1636 40.0343 36.563 39.6618 36.7274C39.2428 36.9389 38.6142 37.0563 37.7296 37.0563C36.7984 37.0563 35.8672 36.9389 34.9826 36.7039C33.9583 36.469 33.0038 36.0931 32.0959 35.5528C32.0261 35.5058 31.9562 35.4823 31.8864 35.5293C31.8166 35.5763 31.7933 35.6702 31.7933 35.7407V39.8285C31.77 40.0165 31.8864 40.1809 32.0494 40.2749C32.7943 40.6273 33.6091 40.8857 34.4239 41.0267C35.4715 41.2381 36.519 41.3321 37.5899 41.3321C39.266 41.3321 40.6628 41.0737 41.8035 40.5803C42.8511 40.1574 43.759 39.4292 44.4108 38.4894C45.0161 37.5732 45.342 36.469 45.3187 35.3648C45.342 34.5191 45.1558 33.6968 44.7833 32.945C44.341 32.1463 43.7124 31.4885 42.9442 30.9951C41.8268 30.2903 40.6163 29.703 39.3592 29.2801C38.8004 29.0452 38.2417 28.7867 37.7063 28.5048C37.4037 28.3404 37.1243 28.1289 36.9148 27.8705C36.7751 27.6826 36.682 27.4711 36.682 27.2597C36.682 27.0482 36.7518 26.8133 36.8682 26.6254C37.0312 26.3904 37.2873 26.226 37.5899 26.1555C38.0322 26.038 38.5211 25.9676 38.9867 25.9911C39.8713 25.9911 40.7327 26.1085 41.594 26.2965Z" fill="#31A8FF"/>
</g>
</g>
</svg>
