<svg width="57" height="56" viewBox="0 0 57 56" fill="none" xmlns="http://www.w3.org/2000/svg">
<g id="trello">
<path id="Vector" d="M50.8661 0H5.90733C2.89398 0 0.451172 2.44281 0.451172 5.45616V50.4149C0.451172 53.4283 2.89398 55.8711 5.90733 55.8711H50.8661C53.8794 55.8711 56.3222 53.4283 56.3222 50.4149V5.45616C56.3222 2.44281 53.8794 0 50.8661 0Z" fill="url(#paint0_linear_233_679)"/>
<path id="Vector_2" d="M46.4393 7.26318H34.6365C33.1901 7.26318 32.0176 8.43573 32.0176 9.88214V29.0878C32.0176 30.5342 33.1901 31.7068 34.6365 31.7068H46.4393C47.8857 31.7068 49.0583 30.5342 49.0583 29.0878V9.88214C49.0583 8.43573 47.8857 7.26318 46.4393 7.26318Z" fill="white"/>
<path id="Vector_3" d="M22.1366 7.26318H10.3338C8.88739 7.26318 7.71484 8.43573 7.71484 9.88214V43.0556C7.71484 44.502 8.88739 45.6745 10.3338 45.6745H22.1366C23.583 45.6745 24.7555 44.502 24.7555 43.0556V9.88214C24.7555 8.43573 23.583 7.26318 22.1366 7.26318Z" fill="white"/>
</g>
<defs>
<linearGradient id="paint0_linear_233_679" x1="28.3867" y1="0" x2="28.3867" y2="55.8711" gradientUnits="userSpaceOnUse">
<stop stop-color="#0091E6"/>
<stop offset="1" stop-color="#0079BF"/>
</linearGradient>
</defs>
</svg>
