<svg width="57" height="57" viewBox="0 0 57 57" fill="none" xmlns="http://www.w3.org/2000/svg">
<g id="vs_code">
<path id="vector" d="M42.8384 2.93865C42.8384 1.18477 40.8747 1.18475 40.002 1.40399C41.2238 0.439354 42.6566 0.673226 43.1657 0.965539L54.9652 6.7512C56.0895 7.30249 56.8027 8.44955 56.8027 9.70658V47.7679C56.8027 49.0417 56.0705 50.201 54.9234 50.7434L43.8203 55.9934C43.0566 56.3222 41.3984 57.1333 40.002 55.9933C41.7475 56.3222 42.693 55.0799 42.8384 54.2395V2.93865Z" fill="url(#paint0_linear_233_640)"/>
<path id="vector_2" d="M40.1436 1.37214C41.0699 1.1891 42.8385 1.27398 42.8385 2.93843V16.0396L7.06467 43.1027C6.43937 43.5757 5.55937 43.4972 5.02677 42.9209L1.33976 38.9313C0.76216 38.3063 0.802574 37.328 1.42974 36.7532L40.002 1.40377L40.1436 1.37214Z" fill="url(#paint1_linear_233_640)"/>
<path id="vector_3" d="M42.8385 41.3576L7.06467 14.2945C6.43937 13.8215 5.55937 13.8999 5.02677 14.4763L1.33976 18.4659C0.76216 19.0909 0.802574 20.0692 1.42974 20.644L40.002 55.9934V55.9934C41.7475 56.3223 42.693 55.0799 42.8385 54.2395V41.3576Z" fill="url(#paint2_linear_233_640)"/>
</g>
<defs>
<linearGradient id="paint0_linear_233_640" x1="48.4023" y1="0.710205" x2="48.4023" y2="56.5813" gradientUnits="userSpaceOnUse">
<stop stop-color="#32B5F1"/>
<stop offset="1" stop-color="#2B9FED"/>
</linearGradient>
<linearGradient id="paint1_linear_233_640" x1="42.8385" y1="7.76155" x2="2.97035" y2="41.2266" gradientUnits="userSpaceOnUse">
<stop stop-color="#0F6FB3"/>
<stop offset="0.270551" stop-color="#1279B7"/>
<stop offset="0.421376" stop-color="#1176B5"/>
<stop offset="0.618197" stop-color="#0E69AC"/>
<stop offset="0.855344" stop-color="#0F70AF"/>
<stop offset="1" stop-color="#0F6DAD"/>
</linearGradient>
<linearGradient id="paint2_linear_233_640" x1="3.23675" y1="16.6408" x2="42.9928" y2="49.5588" gradientUnits="userSpaceOnUse">
<stop stop-color="#1791D2"/>
<stop offset="1" stop-color="#1173C5"/>
</linearGradient>
</defs>
</svg>
