<svg width="65" height="56" viewBox="0 0 65 56" fill="none" xmlns="http://www.w3.org/2000/svg">
<g id="xcel">
<rect id="rectangle" x="16.1953" width="47.8895" height="55.8711" rx="3.99079" fill="#2FB776"/>
<path id="rectangle_2" d="M16.1953 41.9033H64.0848V51.8803C64.0848 54.0844 62.2981 55.8711 60.094 55.8711H20.1861C17.982 55.8711 16.1953 54.0844 16.1953 51.8803V41.9033Z" fill="url(#paint0_linear_233_655)"/>
<rect id="rectangle_3" x="40.1387" y="27.9355" width="23.9447" height="13.9678" fill="#229C5B"/>
<rect id="rectangle_4" x="40.1387" y="13.9678" width="23.9447" height="13.9678" fill="#27AE68"/>
<path id="rectangle_5" d="M16.1953 3.99079C16.1953 1.78674 17.9821 0 20.1861 0H40.1401V13.9678H16.1953V3.99079Z" fill="#1D854F"/>
<rect id="rectangle_6" x="16.1953" y="13.9678" width="23.9447" height="13.9678" fill="#197B43"/>
<rect id="rectangle_7" x="16.1953" y="27.9355" width="23.9447" height="13.9678" fill="#1B5B38"/>
<path id="rectangle_8" d="M16.1953 19.954C16.1953 16.6479 18.8754 13.9678 22.1815 13.9678H34.1539C37.46 13.9678 40.1401 16.6479 40.1401 19.954V43.8987C40.1401 47.2048 37.46 49.8849 34.1539 49.8849H16.1953V19.954Z" fill="black" fill-opacity="0.3"/>
<rect id="rectangle_9" x="0.231445" y="9.97705" width="35.9171" height="35.9171" rx="3.99079" fill="url(#paint1_linear_233_655)"/>
<path id="X" d="M26.1702 37.9124L20.5474 27.7359L25.9233 17.9585H21.5348L18.216 24.2012L14.9521 17.9585H10.4265L15.8298 27.7359L10.207 37.9124H14.5955L18.1338 31.2991L21.6446 37.9124H26.1702Z" fill="white"/>
</g>
<defs>
<linearGradient id="paint0_linear_233_655" x1="16.1953" y1="48.8872" x2="64.0848" y2="48.8872" gradientUnits="userSpaceOnUse">
<stop stop-color="#163C27"/>
<stop offset="1" stop-color="#2A6043"/>
</linearGradient>
<linearGradient id="paint1_linear_233_655" x1="0.231445" y1="27.9356" x2="36.1486" y2="27.9356" gradientUnits="userSpaceOnUse">
<stop stop-color="#185A30"/>
<stop offset="1" stop-color="#176F3D"/>
</linearGradient>
</defs>
</svg>
